# xmcd
#
# Track frame offsets: 
#        150
#        26347
#        40825
#        58077
#        71355
#        87610
#        112612
#        125645
#        140967
#        201167
#        216700
#        251232
#
# Disc length: 3710 seconds
#
# Revision: 0
# Processed by: cddbd v1.5.1PL2 Copyright (c) Steve Scherf et al.
# Submitted via: ExactAudioCopy v0.95a5
#
DISCID=bc0e7c0c
DTITLE=Jim Gilstrap - Swing Your Daddy and Love Talk
DYEAR=1994
DGENRE=Disco
TTITLE0=Put Out The Fire
TTITLE1=Special Occasion
TTITLE2=Ain't That Peculiar
TTITLE3=One More Heartache
TTITLE4=House Of Strangers
TTITLE5=Take Your Daddy For A Ride
TTITLE6=Swing Your Daddy Pt.1
TTITLE7=Swing Your Daddy Pt.2
TTITLE8=Love Talk
TTITLE9=Hello It's Me
TTITLE10=Move Me
TTITLE11=Never Stop Your Loving me (Never Stop)
EXTD=
EXTT0=
EXTT1=
EXTT2=
EXTT3=
EXTT4=
EXTT5=
EXTT6=
EXTT7=
EXTT8=
EXTT9=
EXTT10=
EXTT11=
PLAYORDER=
